# xmcd
# 
# Track frame offsets:
#     150
#     12758
#     32683
#     44120
#     59709
#     73884
#     86007
#     100227
#     115081
#     136222
#     151839
#     167700
#     182850
# 
# Disc length: 2683
# 
# Revision: 0
# Processed by: cddbd v1.5.2PL0 Copyright (c) Steve Scherf et al.
# Submitted via: fre:ac v1.0.17
# 
DISCID=b30a790d
DTITLE=Gary Tackett - Gary Tackett
DYEAR=2013
DGENRE=Country
TTITLE0=liffiopwt
TTITLE1=kogyig 
TTITLE2=tkjn 7
TTITLE3=i9tyouil  
TTITLE4=iotkt
TTITLE5=lbgf
TTITLE6=kfj te 
TTITLE7=t90ui=
TTITLE8=hmjp
TTITLE9=lp[ 0o 90
TTITLE10=jk 9l 0 
TTITLE11=io9,0
TTITLE12=o0 - pp-
EXTD=
EXTT0=
EXTT1=
EXTT2=
EXTT3=
EXTT4=
EXTT5=
EXTT6=
EXTT7=
EXTT8=
EXTT9=
EXTT10=
EXTT11=
EXTT12=
PLAYORDER=
